<svg width="14" height="14" viewBox="0 0 14 14" fill="none" xmlns="http://www.w3.org/2000/svg">
<path d="M12.8125 11.5H11.5V1.875C11.5 1.64294 11.4078 1.42038 11.2437 1.25628C11.0796 1.09219 10.8571 1 10.625 1H3.625C3.39294 1 3.17038 1.09219 3.00628 1.25628C2.84219 1.42038 2.75 1.64294 2.75 1.875V11.5H1.4375C1.32147 11.5 1.21019 11.5461 1.12814 11.6281C1.04609 11.7102 1 11.8215 1 11.9375C1 12.0535 1.04609 12.1648 1.12814 12.2469C1.21019 12.3289 1.32147 12.375 1.4375 12.375H12.8125C12.9285 12.375 13.0398 12.3289 13.1219 12.2469C13.2039 12.1648 13.25 12.0535 13.25 11.9375C13.25 11.8215 13.2039 11.7102 13.1219 11.6281C13.0398 11.5461 12.9285 11.5 12.8125 11.5ZM9.3125 11.5H3.625V1.875H9.3125V11.5ZM7.125 6.90625C7.125 6.77646 7.16349 6.64958 7.2356 6.54166C7.30771 6.43374 7.4102 6.34962 7.53011 6.29995C7.65003 6.25028 7.78198 6.23729 7.90928 6.26261C8.03658 6.28793 8.15351 6.35043 8.24529 6.44221C8.33707 6.53399 8.39957 6.65092 8.42489 6.77822C8.45021 6.90552 8.43722 7.03747 8.38755 7.15739C8.33788 7.2773 8.25376 7.37979 8.14584 7.4519C8.03792 7.52401 7.91104 7.5625 7.78125 7.5625C7.6072 7.5625 7.44028 7.49336 7.31721 7.37029C7.19414 7.24722 7.125 7.0803 7.125 6.90625Z" fill="black"/>
</svg>
