<?xml version="1.0" standalone="no"?>
<!DOCTYPE svg PUBLIC "-//W3C//DTD SVG 20010904//EN"
 "http://www.w3.org/TR/2001/REC-SVG-20010904/DTD/svg10.dtd">
<svg version="1.0" xmlns="http://www.w3.org/2000/svg"
 width="24.000000pt" height="24.000000pt" viewBox="0 0 24.000000 24.000000"
 preserveAspectRatio="xMidYMid meet">

<g transform="translate(0.000000,24.000000) scale(0.100000,-0.100000)"
fill="#000000" stroke="none">
<path d="M140 221 c-8 -6 -26 -7 -42 -4 -60 12 -104 -25 -91 -76 6 -23 41 -29
61 -9 9 9 15 8 25 -6 13 -17 14 -16 26 13 16 38 24 39 39 5 10 -21 18 -25 45
-22 27 2 33 8 35 30 6 50 -57 94 -98 69z"/>
<path d="M121 104 c-11 -24 -13 -25 -29 -11 -10 8 -25 12 -35 8 -15 -5 -11
-13 26 -49 l43 -42 44 45 c44 45 44 45 17 45 -15 0 -30 7 -33 15 -9 22 -19 18
-33 -11z"/>
</g>
</svg>
