<?xml version="1.0" standalone="no"?>
<!DOCTYPE svg PUBLIC "-//W3C//DTD SVG 20010904//EN"
 "http://www.w3.org/TR/2001/REC-SVG-20010904/DTD/svg10.dtd">
<svg version="1.0" xmlns="http://www.w3.org/2000/svg"
 width="128.000000pt" height="128.000000pt" viewBox="0 0 128.000000 128.000000"
 preserveAspectRatio="xMidYMid meet">

<g transform="translate(0.000000,128.000000) scale(0.100000,-0.100000)"
fill="#000000" stroke="none">
<path d="M812 1204 c-59 -16 -92 -31 -141 -68 l-33 -25 -40 29 c-133 97 -322
94 -448 -6 -54 -42 -115 -130 -131 -187 -22 -77 -16 -175 16 -245 l28 -62 137
0 137 0 31 50 c49 78 64 71 146 -61 l39 -64 81 165 c106 215 104 215 200 38
l70 -128 158 0 159 0 27 58 c37 78 39 211 4 286 -50 108 -147 192 -257 221
-72 18 -113 18 -183 -1z"/>
<path d="M694 669 c-129 -275 -125 -273 -213 -140 l-60 91 -21 -30 -21 -30
-127 0 -127 -1 245 -239 c135 -132 253 -245 264 -251 16 -10 50 20 267 238
l250 248 -148 5 -148 5 -56 104 -57 103 -48 -103z"/>
</g>
</svg>
