<svg width="42" height="42" viewBox="0 0 42 42" fill="none" xmlns="http://www.w3.org/2000/svg">
<g id="pluse">
<path id="Vector" d="M33.25 23.5278H22.75V34.0278C22.75 34.492 22.5656 34.9371 22.2374 35.2653C21.9092 35.5935 21.4641 35.7778 21 35.7778C20.5359 35.7778 20.0908 35.5935 19.7626 35.2653C19.4344 34.9371 19.25 34.492 19.25 34.0278V23.5278H8.75C8.28587 23.5278 7.84075 23.3435 7.51256 23.0153C7.18437 22.6871 7 22.242 7 21.7778C7 21.3137 7.18437 20.8686 7.51256 20.5404C7.84075 20.2122 8.28587 20.0278 8.75 20.0278H19.25V9.52783C19.25 9.0637 19.4344 8.61858 19.7626 8.2904C20.0908 7.96221 20.5359 7.77783 21 7.77783C21.4641 7.77783 21.9092 7.96221 22.2374 8.2904C22.5656 8.61858 22.75 9.0637 22.75 9.52783V20.0278H33.25C33.7141 20.0278 34.1592 20.2122 34.4874 20.5404C34.8156 20.8686 35 21.3137 35 21.7778C35 22.242 34.8156 22.6871 34.4874 23.0153C34.1592 23.3435 33.7141 23.5278 33.25 23.5278Z" fill="black"/>
</g>
</svg>
