<svg width="26" height="26" viewBox="0 0 26 26" fill="none" xmlns="http://www.w3.org/2000/svg">
<path d="M21.9382 13.2195C21.9422 13.0733 21.9422 12.927 21.9382 12.7808L23.4535 10.8877C23.5329 10.7883 23.5879 10.6716 23.614 10.5471C23.6401 10.4225 23.6366 10.2936 23.6038 10.1706C23.3549 9.23702 22.9834 8.34054 22.4988 7.50462C22.4353 7.39526 22.3471 7.30223 22.2413 7.23293C22.1355 7.16364 22.015 7.12 21.8894 7.10548L19.4803 6.83736C19.3801 6.73173 19.2786 6.63017 19.1757 6.53267L18.8913 4.11751C18.8767 3.99179 18.8329 3.87122 18.7634 3.76543C18.6939 3.65963 18.6007 3.57152 18.4911 3.50814C17.6553 3.02394 16.7587 2.65303 15.8251 2.40517C15.7022 2.37232 15.5732 2.36881 15.4487 2.39492C15.3241 2.42103 15.2075 2.47603 15.1081 2.55548L13.22 4.06267C13.0738 4.06267 12.9275 4.06267 12.7813 4.06267L10.8882 2.5504C10.7888 2.47095 10.6721 2.41595 10.5475 2.38984C10.423 2.36374 10.2941 2.36725 10.1711 2.40009C9.23751 2.64895 8.34102 3.02052 7.50511 3.50509C7.39575 3.56859 7.30271 3.65675 7.23342 3.76254C7.16413 3.86833 7.12049 3.98884 7.10597 4.11447L6.83784 6.52759C6.73222 6.62848 6.63066 6.73004 6.53316 6.83228L4.118 7.10954C3.99228 7.12417 3.87171 7.16797 3.76591 7.23744C3.66012 7.30691 3.57201 7.40015 3.50863 7.5097C3.02452 8.34573 2.6533 9.24219 2.40464 10.1757C2.37193 10.2987 2.36859 10.4277 2.39488 10.5523C2.42116 10.6768 2.47634 10.7934 2.55597 10.8927L4.06316 12.7808C4.06316 12.927 4.06316 13.0733 4.06316 13.2195L2.55089 15.1127C2.47144 15.2121 2.41644 15.3287 2.39033 15.4533C2.36422 15.5778 2.36773 15.7068 2.40058 15.8297C2.64943 16.7633 3.02101 17.6598 3.50558 18.4957C3.56908 18.6051 3.65724 18.6981 3.76303 18.7674C3.86882 18.8367 3.98932 18.8803 4.11495 18.8949L6.52402 19.163C6.6249 19.2686 6.72646 19.3702 6.8287 19.4677L7.11003 21.8828C7.12466 22.0085 7.16845 22.1291 7.23793 22.2349C7.3074 22.3407 7.40063 22.4288 7.51019 22.4922C8.34621 22.9763 9.24268 23.3475 10.1762 23.5962C10.2992 23.6289 10.4282 23.6322 10.5527 23.606C10.6773 23.5797 10.7939 23.5245 10.8932 23.4449L12.7813 21.9377C12.9275 21.9417 13.0738 21.9417 13.22 21.9377L15.1132 23.453C15.2126 23.5324 15.3292 23.5874 15.4538 23.6135C15.5783 23.6396 15.7072 23.6361 15.8302 23.6033C16.764 23.3549 17.6605 22.9833 18.4962 22.4983C18.6056 22.4348 18.6986 22.3466 18.7679 22.2408C18.8372 22.1351 18.8808 22.0145 18.8953 21.8889L19.1635 19.4799C19.2691 19.3796 19.3707 19.2781 19.4682 19.1752L21.8833 18.8908C22.009 18.8762 22.1296 18.8324 22.2354 18.7629C22.3412 18.6934 22.4293 18.6002 22.4927 18.4906C22.9768 17.6546 23.348 16.7581 23.5967 15.8246C23.6294 15.7016 23.6327 15.5726 23.6064 15.4481C23.5802 15.3235 23.525 15.2069 23.4453 15.1076L21.9382 13.2195ZM13.0007 17.0627C12.1972 17.0627 11.4117 16.8244 10.7437 16.378C10.0756 15.9316 9.55488 15.2971 9.2474 14.5548C8.93991 13.8125 8.85946 12.9957 9.01622 12.2076C9.17297 11.4196 9.55988 10.6957 10.128 10.1275C10.6962 9.5594 11.4201 9.17248 12.2081 9.01573C12.9962 8.85898 13.813 8.93943 14.5553 9.24691C15.2976 9.55439 15.9321 10.0751 16.3785 10.7432C16.8249 11.4112 17.0632 12.1967 17.0632 13.0002C17.0632 14.0776 16.6351 15.1109 15.8733 15.8728C15.1114 16.6347 14.0781 17.0627 13.0007 17.0627Z" fill="black"/>
</svg>
