<svg width="16" height="16" viewBox="0 0 16 16" fill="none" xmlns="http://www.w3.org/2000/svg">
<path d="M13.3337 3.8976C13.3337 4.03361 13.2868 4.16404 13.2035 4.26022C13.1201 4.35639 13.0071 4.41042 12.8892 4.41042H12.4448V13.6412C12.4448 13.9132 12.3511 14.1741 12.1844 14.3664C12.0177 14.5588 11.7916 14.6668 11.5559 14.6668H4.44477C4.20902 14.6668 3.98293 14.5588 3.81623 14.3664C3.64953 14.1741 3.55588 13.9132 3.55588 13.6412V4.41042H3.11144C2.99356 4.41042 2.88052 4.35639 2.79717 4.26022C2.71382 4.16404 2.66699 4.03361 2.66699 3.8976C2.66699 3.76159 2.71382 3.63115 2.79717 3.53498C2.88052 3.43881 2.99356 3.38478 3.11144 3.38478H12.8892C13.0071 3.38478 13.1201 3.43881 13.2035 3.53498C13.2868 3.63115 13.3337 3.76159 13.3337 3.8976ZM5.7781 2.35914H10.2225C10.3404 2.35914 10.4535 2.30511 10.5368 2.20894C10.6202 2.11276 10.667 1.98233 10.667 1.84632C10.667 1.71031 10.6202 1.57987 10.5368 1.4837C10.4535 1.38753 10.3404 1.3335 10.2225 1.3335H5.7781C5.66023 1.3335 5.54718 1.38753 5.46383 1.4837C5.38048 1.57987 5.33366 1.71031 5.33366 1.84632C5.33366 1.98233 5.38048 2.11276 5.46383 2.20894C5.54718 2.30511 5.66023 2.35914 5.7781 2.35914Z" fill="black"/>
</svg>
