<svg width="16" height="16" viewBox="0 0 16 16" fill="none" xmlns="http://www.w3.org/2000/svg">
<g id="weight-hanging-svgrepo-com 3">
<path id="Vector" d="M13.9597 12.4498L12.2481 5.60288C12.159 5.24686 11.8627 5.00006 11.5245 5.00006H10.1124C10.1961 4.76451 10.2502 4.51442 10.2502 4.25004C10.2502 3.00736 9.2429 2 8.00023 2C6.75757 2 5.75023 3.00736 5.75023 4.25004C5.75023 4.51442 5.80413 4.76451 5.88804 5.00006H4.47593C4.13772 5.00006 3.84124 5.24709 3.75241 5.60288L2.04029 12.4498C1.84506 13.2305 2.38389 14 3.12569 14H12.8745C13.6161 14 14.1549 13.2305 13.9597 12.4498ZM8 4.99982C7.58656 4.99982 7.25 4.66326 7.25 4.24981C7.25 3.83636 7.58656 3.49979 8 3.49979C8.41344 3.49979 8.75 3.83636 8.75 4.24981C8.75 4.66326 8.41344 4.99982 8 4.99982Z" fill="black"/>
</g>
</svg>
